<svg width="18" height="32" viewBox="0 0 18 32" fill="none" xmlns="http://www.w3.org/2000/svg">
<path d="M0.918657 15.8363C0.919111 15.624 0.866085 15.415 0.764471 15.2286C0.662857 15.0422 0.515936 14.8844 0.337254 14.7698C0.18486 14.677 0.0734406 14.5297 0.0256062 14.3578C-0.0222301 14.1859 -0.00290108 14.0023 0.0796509 13.8441C3.72579 7.05621 4.11941 6.98278 8.87781 2.52892C11.2095 0.348943 12.6395 -0.023014 13.9335 0.0010609C15.2276 0.0251358 16.6347 1.11693 17.0633 2.1678C17.6495 3.61229 17.032 6.0896 15.4984 6.98278C14.3344 7.66169 12.6335 7.51844 11.8872 6.62165C10.8423 5.36856 11.7668 3.97342 12.0075 3.37154C12.0196 3.34145 12.0208 3.31738 12.0075 3.30414C11.7668 2.99116 6.5907 7.22353 5.02583 10.594C4.90546 10.8456 5.9479 11.155 6.1092 11.557C6.34995 12.1589 6.1092 12.3996 6.22958 12.8811C6.41616 13.6299 8.51669 12.52 9.11856 15.7701V15.8905C8.51669 19.1406 6.41616 18.0307 6.22958 18.7795C6.1092 19.261 6.34995 19.5017 6.1092 20.1036C5.9479 20.5056 4.90546 20.815 5.02583 21.0666C6.5907 24.4371 11.7668 28.6694 12.0075 28.3565C12.0184 28.3432 12.0172 28.3191 12.0075 28.289C11.7668 27.6872 10.8423 26.292 11.8872 25.0389C12.6335 24.1422 14.3344 23.9989 15.4984 24.6778C17.032 25.571 17.6495 28.0483 17.0633 29.4928C16.6347 30.5437 15.2155 31.6343 13.9335 31.6595C12.6516 31.6848 11.2095 31.3117 8.87781 29.1317C4.78508 25.3074 1.55062 20.236 0.138632 17.8466C0.0440121 17.6912 0.0126095 17.5055 0.050909 17.3276C0.0892067 17.1498 0.194283 16.9934 0.344469 16.8908C0.520178 16.7765 0.664671 16.6203 0.764912 16.4362C0.865152 16.2521 0.917992 16.0459 0.918657 15.8363Z" fill="#F1ECDA"/>
</svg>
