<svg width="29" height="29" viewBox="0 0 29 29" fill="none" xmlns="http://www.w3.org/2000/svg">
<path fill-rule="evenodd" clip-rule="evenodd" d="M3.5002 0.199951H25.5002C26.3754 0.199951 27.2148 0.547629 27.8336 1.1665C28.4525 1.78537 28.8002 2.62474 28.8002 3.49995V25.5C28.8002 26.3752 28.4525 27.2145 27.8336 27.8334C27.2148 28.4523 26.3754 28.8 25.5002 28.8H3.5002C2.62498 28.8 1.78561 28.4523 1.16674 27.8334C0.547873 27.2145 0.200195 26.3752 0.200195 25.5V3.49995C0.200195 2.62474 0.547873 1.78537 1.16674 1.1665C1.78561 0.547629 2.62498 0.199951 3.5002 0.199951ZM3.5002 2.39995C3.20846 2.39995 2.92867 2.51584 2.72238 2.72213C2.51609 2.92842 2.4002 3.20821 2.4002 3.49995V16.4008L6.1006 12.7004C6.19438 12.6063 6.30614 12.5321 6.42921 12.4821C6.55228 12.4321 6.68415 12.4074 6.81696 12.4095C6.94977 12.4115 7.08082 12.4403 7.20228 12.494C7.32375 12.5478 7.43316 12.6254 7.524 12.7224L15.323 21.078L21.5006 14.9004C21.6862 14.715 21.9378 14.6108 22.2002 14.6108C22.4625 14.6108 22.7142 14.715 22.8998 14.9004L26.6002 18.6008V3.49995C26.6002 3.20821 26.4843 2.92842 26.278 2.72213C26.0717 2.51584 25.7919 2.39995 25.5002 2.39995H3.5002ZM2.4002 25.5V19.1992L6.776 14.8256L14.5684 23.1724L17.6704 26.6H3.5002C3.20846 26.6 2.92867 26.4841 2.72238 26.2778C2.51609 26.0715 2.4002 25.7917 2.4002 25.5ZM25.5002 26.6H20.3412L16.6628 22.5366L22.2002 16.9992L26.6002 21.3992V25.5C26.6002 25.7917 26.4843 26.0715 26.278 26.2778C26.0717 26.4841 25.7919 26.6 25.5002 26.6ZM12.6302 10.1C12.6302 9.604 12.8272 9.12835 13.1779 8.77766C13.5286 8.42697 14.0042 8.22995 14.5002 8.22995C14.9962 8.22995 15.4718 8.42697 15.8225 8.77766C16.1732 9.12835 16.3702 9.604 16.3702 10.1C16.3702 10.5959 16.1732 11.0715 15.8225 11.4222C15.4718 11.7729 14.9962 11.97 14.5002 11.97C14.0042 11.97 13.5286 11.7729 13.1779 11.4222C12.8272 11.0715 12.6302 10.5959 12.6302 10.1ZM14.5002 6.24995C13.9946 6.24995 13.494 6.34953 13.0269 6.54302C12.5598 6.7365 12.1353 7.02008 11.7778 7.37759C11.4203 7.7351 11.1367 8.15952 10.9433 8.62662C10.7498 9.09372 10.6502 9.59436 10.6502 10.1C10.6502 10.6055 10.7498 11.1062 10.9433 11.5733C11.1367 12.0404 11.4203 12.4648 11.7778 12.8223C12.1353 13.1798 12.5598 13.4634 13.0269 13.6569C13.494 13.8504 13.9946 13.95 14.5002 13.95C15.5213 13.95 16.5005 13.5443 17.2226 12.8223C17.9446 12.1003 18.3502 11.121 18.3502 10.1C18.3502 9.07887 17.9446 8.09961 17.2226 7.37759C16.5005 6.65558 15.5213 6.24995 14.5002 6.24995Z" fill="white"/>
</svg>
