<svg width="343" height="651" viewBox="0 0 343 651" fill="none" xmlns="http://www.w3.org/2000/svg">
<path d="M2.84561e-05 651L4.0357e-06 92.3262L2.98261 74.1306L2.23878e-06 51.2175L0 0.000137042L247.805 0.00012621L261.724 7.41315L278.625 0.000124862L342.503 0.00012207L342.503 410.413L335.792 493.304L342.503 543.174V651H128.252L116.819 642.239L108.617 651H2.84561e-05Z" fill="url(#paint0_linear_875_1497)"/>
<path d="M2.84561e-05 651L4.0357e-06 92.3262L2.98261 74.1306L2.23878e-06 51.2175L0 0.000137042L247.805 0.00012621L261.724 7.41315L278.625 0.000124862L342.503 0.00012207L342.503 410.413L335.792 493.304L342.503 543.174V651H128.252L116.819 642.239L108.617 651H2.84561e-05Z" fill="#D7C19F" fill-opacity="0.44"/>
<defs>
<linearGradient id="paint0_linear_875_1497" x1="171.251" y1="0.00012207" x2="171.251" y2="651" gradientUnits="userSpaceOnUse">
<stop stop-color="#EDDDC1"/>
<stop offset="1" stop-color="#C7AF90"/>
</linearGradient>
</defs>
</svg>
