<svg width="143" height="67" viewBox="0 0 143 67" fill="none" xmlns="http://www.w3.org/2000/svg">
<path d="M1.08708 32.3255C1.08762 31.8922 1.02487 31.4656 0.904629 31.0851C0.784388 30.7046 0.610533 30.3825 0.399096 30.1485C0.218767 29.9591 0.0869236 29.6585 0.0303192 29.3076C-0.0262833 28.9568 -0.00341225 28.5819 0.0942726 28.259C4.40879 14.4033 4.87457 14.2534 10.5052 5.16211C13.2643 0.712272 14.9565 -0.0469768 16.4877 0.00216554C18.019 0.0513079 19.6841 2.27991 20.1912 4.42498C20.8849 7.37352 20.1542 12.4303 18.3395 14.2534C16.9621 15.6393 14.9494 15.3469 14.0663 13.5163C12.8299 10.9585 13.9238 8.11065 14.2087 6.88209C14.2229 6.82067 14.2244 6.77152 14.2087 6.7445C13.9238 6.10565 7.79887 14.7449 5.94715 21.6248C5.80471 22.1383 7.03824 22.7698 7.22911 23.5905C7.51399 24.8191 7.22911 25.3105 7.37155 26.2933C7.59233 27.8216 10.0779 25.5562 10.7901 32.1904V32.4361C10.0779 39.0703 7.59233 36.8049 7.37155 38.3332C7.22911 39.316 7.51399 39.8075 7.22911 41.036C7.03824 41.8567 5.80471 42.4882 5.94715 43.0017C7.79887 49.8817 13.9238 58.5209 14.2087 57.882C14.2215 57.855 14.2201 57.8059 14.2087 57.7444C13.9238 56.5159 12.8299 53.6681 14.0663 51.1102C14.9494 49.2797 16.9621 48.9873 18.3395 50.3731C20.1542 52.1963 20.8849 57.253 20.1912 60.2015C19.6841 62.3466 18.0047 64.5728 16.4877 64.6244C14.9708 64.676 13.2643 63.9142 10.5052 59.4644C5.66227 51.6581 1.83489 41.3063 0.164066 36.4289C0.0521011 36.1118 0.0149422 35.7326 0.0602608 35.3696C0.105581 35.0066 0.229918 34.6875 0.407635 34.478C0.615553 34.2447 0.786533 33.9258 0.905149 33.55C1.02377 33.1742 1.08629 32.7534 1.08708 32.3255Z" fill="#BDA685"/>
<path d="M141.852 32.3255C141.852 31.8922 141.915 31.4656 142.035 31.0851C142.155 30.7046 142.329 30.3825 142.54 30.1485C142.721 29.9591 142.853 29.6585 142.909 29.3076C142.966 28.9568 142.943 28.5819 142.845 28.259C138.531 14.4033 138.065 14.2534 132.434 5.16211C129.675 0.712272 127.983 -0.0469768 126.452 0.00216554C124.92 0.0513079 123.255 2.27991 122.748 4.42498C122.055 7.37352 122.785 12.4303 124.6 14.2534C125.977 15.6393 127.99 15.3469 128.873 13.5163C130.11 10.9585 129.016 8.11065 128.731 6.88209C128.717 6.82067 128.715 6.77152 128.731 6.7445C129.016 6.10565 135.141 14.7449 136.992 21.6248C137.135 22.1383 135.901 22.7698 135.71 23.5905C135.425 24.8191 135.71 25.3105 135.568 26.2933C135.347 27.8216 132.862 25.5562 132.149 32.1904V32.4361C132.862 39.0703 135.347 36.8049 135.568 38.3332C135.71 39.316 135.425 39.8075 135.71 41.036C135.901 41.8567 137.135 42.4882 136.992 43.0017C135.141 49.8817 129.016 58.5209 128.731 57.882C128.718 57.855 128.719 57.8059 128.731 57.7444C129.016 56.5159 130.11 53.6681 128.873 51.1102C127.99 49.2797 125.977 48.9873 124.6 50.3731C122.785 52.1963 122.055 57.253 122.748 60.2015C123.255 62.3466 124.935 64.5728 126.452 64.6244C127.969 64.676 129.675 63.9142 132.434 59.4644C137.277 51.6581 141.105 41.3063 142.775 36.4289C142.887 36.1118 142.925 35.7326 142.879 35.3696C142.834 35.0066 142.71 34.6875 142.532 34.478C142.324 34.2447 142.153 33.9258 142.034 33.55C141.916 33.1742 141.853 32.7534 141.852 32.3255Z" fill="#BDA685"/>
<path d="M16.4107 5.05469H125.127L132.746 14.1536L138.9 35.8898L129.23 63.6919L125.127 66.7248H16.4107L12.8942 62.6809L3.81006 35.8898L7.61954 19.714L16.4107 5.05469Z" fill="#BDA685"/>
<path d="M16.4107 2.02197H125.127L132.746 11.1208L138.9 32.857L132.746 53.0768L125.127 63.6921H16.4107L7.61954 50.0438L3.81006 32.857L7.61954 16.6813L16.4107 2.02197Z" fill="url(#paint0_radial_875_1626)"/>
<path d="M15.5213 32.223C15.521 32.0324 15.5486 31.8447 15.6016 31.6773C15.6545 31.5099 15.731 31.3682 15.824 31.2653C15.9034 31.1819 15.9614 31.0497 15.9863 30.8953C16.0112 30.7409 16.0012 30.576 15.9582 30.434C14.0594 24.3382 13.8544 24.2722 11.3764 20.2725C10.1622 18.3148 9.41749 17.9808 8.74361 18.0024C8.06973 18.024 7.33693 19.0045 7.11377 19.9482C6.80849 21.2454 7.13007 23.4701 7.92869 24.2722C8.53487 24.8819 9.42062 24.7533 9.80928 23.9479C10.3534 22.8226 9.87197 21.5697 9.74659 21.0292C9.74032 21.0022 9.7397 20.9806 9.74659 20.9687C9.87197 20.6876 12.5675 24.4884 13.3824 27.5153C13.4451 27.7412 12.9022 28.019 12.8182 28.3801C12.6928 28.9206 12.8182 29.1368 12.7555 29.5692C12.6584 30.2415 11.5645 29.2449 11.2511 32.1636L11.2511 32.2717C11.5645 35.1904 12.6584 34.1937 12.7555 34.8661C12.8182 35.2985 12.6928 35.5147 12.8182 36.0552C12.9022 36.4162 13.4451 36.6941 13.3824 36.92C12.5675 39.9468 9.87196 43.7476 9.74659 43.4665C9.74095 43.4547 9.74158 43.433 9.74659 43.406C9.87196 42.8655 10.3534 41.6126 9.80928 40.4873C9.42062 39.6819 8.53487 39.5533 7.92869 40.163C7.13006 40.9651 6.80848 43.1898 7.11377 44.487C7.33693 45.4307 8.076 46.4101 8.74361 46.4328C9.41122 46.4555 10.1622 46.1204 11.3764 44.1627C13.5078 40.7284 15.1922 36.1741 15.9275 34.0283C15.9767 33.8888 15.9931 33.722 15.9731 33.5623C15.9532 33.4026 15.8985 33.2622 15.8203 33.17C15.7288 33.0673 15.6535 32.927 15.6013 32.7617C15.5491 32.5964 15.5216 32.4113 15.5213 32.223Z" fill="url(#paint1_radial_875_1626)"/>
<path d="M127.479 32.223C127.479 32.0324 127.451 31.8447 127.398 31.6773C127.346 31.5099 127.269 31.3682 127.176 31.2653C127.097 31.1819 127.039 31.0497 127.014 30.8953C126.989 30.7409 126.999 30.576 127.042 30.434C128.941 24.3382 129.146 24.2722 131.624 20.2725C132.838 18.3148 133.583 17.9808 134.256 18.0024C134.93 18.024 135.663 19.0045 135.886 19.9482C136.192 21.2454 135.87 23.4701 135.071 24.2722C134.465 24.8819 133.579 24.7533 133.191 23.9479C132.647 22.8226 133.128 21.5697 133.253 21.0292C133.26 21.0022 133.26 20.9806 133.253 20.9687C133.128 20.6876 130.433 24.4884 129.618 27.5153C129.555 27.7412 130.098 28.019 130.182 28.3801C130.307 28.9206 130.182 29.1368 130.244 29.5692C130.342 30.2415 131.436 29.2449 131.749 32.1636L131.749 32.2717C131.436 35.1904 130.342 34.1937 130.244 34.8661C130.182 35.2985 130.307 35.5147 130.182 36.0552C130.098 36.4162 129.555 36.6941 129.618 36.92C130.433 39.9468 133.128 43.7476 133.253 43.4665C133.259 43.4547 133.258 43.433 133.253 43.406C133.128 42.8655 132.647 41.6126 133.191 40.4873C133.579 39.6819 134.465 39.5533 135.071 40.163C135.87 40.9651 136.192 43.1898 135.886 44.487C135.663 45.4307 134.924 46.4101 134.256 46.4328C133.589 46.4555 132.838 46.1204 131.624 44.1627C129.492 40.7284 127.808 36.1741 127.073 34.0283C127.023 33.8888 127.007 33.722 127.027 33.5623C127.047 33.4026 127.102 33.2622 127.18 33.17C127.271 33.0673 127.346 32.927 127.399 32.7617C127.451 32.5964 127.478 32.4113 127.479 32.223Z" fill="url(#paint2_radial_875_1626)"/>
<path d="M140.043 32.3255C140.043 31.8922 140.106 31.4656 140.226 31.0851C140.346 30.7046 140.52 30.3825 140.731 30.1485C140.912 29.9591 141.043 29.6585 141.1 29.3076C141.157 28.9568 141.134 28.5819 141.036 28.259C136.722 14.4033 136.256 14.2534 130.625 5.16211C127.866 0.712272 126.174 -0.0469768 124.643 0.00216554C123.111 0.0513079 121.446 2.27991 120.939 4.42498C120.245 7.37352 120.976 12.4303 122.791 14.2534C124.168 15.6393 126.181 15.3469 127.064 13.5163C128.3 10.9585 127.207 8.11065 126.922 6.88209C126.907 6.82067 126.906 6.77152 126.922 6.7445C127.207 6.10565 133.331 14.7449 135.183 21.6248C135.326 22.1383 134.092 22.7698 133.901 23.5905C133.616 24.8191 133.901 25.3105 133.759 26.2933C133.538 27.8216 131.052 25.5562 130.34 32.1904V32.4361C131.052 39.0703 133.538 36.8049 133.759 38.3332C133.901 39.316 133.616 39.8075 133.901 41.036C134.092 41.8567 135.326 42.4882 135.183 43.0017C133.331 49.8817 127.207 58.5209 126.922 57.882C126.909 57.855 126.91 57.8059 126.922 57.7444C127.207 56.5159 128.3 53.6681 127.064 51.1102C126.181 49.2797 124.168 48.9873 122.791 50.3731C120.976 52.1963 120.245 57.253 120.939 60.2015C121.446 62.3466 123.126 64.5728 124.643 64.6244C126.16 64.676 127.866 63.9142 130.625 59.4644C135.468 51.6581 139.295 41.3063 140.966 36.4289C141.078 36.1118 141.115 35.7326 141.07 35.3696C141.025 35.0066 140.9 34.6875 140.723 34.478C140.515 34.2447 140.344 33.9258 140.225 33.55C140.107 33.1742 140.044 32.7534 140.043 32.3255Z" fill="url(#paint3_radial_875_1626)"/>
<path d="M2.84538 32.3255C2.84592 31.8922 2.78317 31.4656 2.66293 31.0851C2.54269 30.7046 2.36883 30.3825 2.1574 30.1485C1.97707 29.9591 1.84522 29.6585 1.78862 29.3076C1.73202 28.9568 1.75489 28.5819 1.85257 28.259C6.1671 14.4033 6.63287 14.2534 12.2635 5.16211C15.0226 0.712272 16.7148 -0.0469768 18.246 0.00216554C19.7773 0.0513079 21.4424 2.27991 21.9495 4.42498C22.6432 7.37352 21.9125 12.4303 20.0978 14.2534C18.7204 15.6393 16.7077 15.3469 15.8246 13.5163C14.5882 10.9585 15.6821 8.11065 15.967 6.88209C15.9812 6.82067 15.9827 6.77152 15.967 6.7445C15.6821 6.10565 9.55717 14.7449 7.70545 21.6248C7.56301 22.1383 8.79654 22.7698 8.98741 23.5905C9.27229 24.8191 8.98741 25.3105 9.12985 26.2933C9.35064 27.8216 11.8362 25.5562 12.5484 32.1904V32.4361C11.8362 39.0703 9.35064 36.8049 9.12985 38.3332C8.98741 39.316 9.27229 39.8075 8.98741 41.036C8.79654 41.8567 7.56301 42.4882 7.70545 43.0017C9.55717 49.8817 15.6821 58.5209 15.967 57.882C15.9798 57.855 15.9784 57.8059 15.967 57.7444C15.6821 56.5159 14.5882 53.6681 15.8246 51.1102C16.7077 49.2797 18.7204 48.9873 20.0978 50.3731C21.9125 52.1963 22.6432 57.253 21.9495 60.2015C21.4424 62.3466 19.763 64.5728 18.246 64.6244C16.7291 64.676 15.0226 63.9142 12.2635 59.4644C7.42057 51.6581 3.59319 41.3063 1.92237 36.4289C1.8104 36.1118 1.77324 35.7326 1.81856 35.3696C1.86388 35.0066 1.98822 34.6875 2.16594 34.478C2.37385 34.2447 2.54483 33.9258 2.66345 33.55C2.78207 33.1742 2.84459 32.7534 2.84538 32.3255Z" fill="url(#paint4_radial_875_1626)"/>
<ellipse cx="7.32616" cy="32.3516" rx="2.05126" ry="2.02197" fill="url(#paint5_radial_875_1626)"/>
<ellipse cx="19" cy="55.0015" rx="1" ry="2" fill="url(#paint6_radial_875_1626)"/>
<ellipse cx="124" cy="55.0015" rx="1" ry="2" fill="url(#paint7_radial_875_1626)"/>
<ellipse cx="19" cy="10.0015" rx="1" ry="2" fill="url(#paint8_radial_875_1626)"/>
<ellipse cx="124" cy="10.0015" rx="1" ry="2" fill="url(#paint9_radial_875_1626)"/>
<ellipse cx="135.676" cy="32.3516" rx="2.05126" ry="2.02197" fill="url(#paint10_radial_875_1626)"/>
<defs>
<radialGradient id="paint0_radial_875_1626" cx="0" cy="0" r="1" gradientUnits="userSpaceOnUse" gradientTransform="translate(71.3551 32.857) rotate(90) scale(30.8351 67.5451)">
<stop stop-color="#69C9DE"/>
<stop offset="1" stop-color="#00758E"/>
</radialGradient>
<radialGradient id="paint1_radial_875_1626" cx="0" cy="0" r="1" gradientUnits="userSpaceOnUse" gradientTransform="translate(11.4999 32.2177) rotate(90) scale(14.2162 4.49986)">
<stop stop-color="#FCF3D5"/>
<stop offset="0.898698" stop-color="#FBF3D5"/>
<stop offset="1" stop-color="#FDF4D6"/>
</radialGradient>
<radialGradient id="paint2_radial_875_1626" cx="0" cy="0" r="1" gradientUnits="userSpaceOnUse" gradientTransform="translate(131.5 32.2177) rotate(90) scale(14.2162 4.49986)">
<stop stop-color="#FCF3D5"/>
<stop offset="0.898698" stop-color="#FBF3D5"/>
<stop offset="1" stop-color="#FDF4D6"/>
</radialGradient>
<radialGradient id="paint3_radial_875_1626" cx="0" cy="0" r="1" gradientUnits="userSpaceOnUse" gradientTransform="translate(130.906 32.3134) rotate(90) scale(32.3134 10.2249)">
<stop stop-color="white"/>
<stop offset="0.836194" stop-color="#FBF3D5"/>
<stop offset="1" stop-color="#FFEAB4"/>
</radialGradient>
<radialGradient id="paint4_radial_875_1626" cx="0" cy="0" r="1" gradientUnits="userSpaceOnUse" gradientTransform="translate(11.9831 32.3134) rotate(90) scale(32.3134 10.2249)">
<stop stop-color="white"/>
<stop offset="0.836194" stop-color="#FBF3D5"/>
<stop offset="1" stop-color="#FFEAB4"/>
</radialGradient>
<radialGradient id="paint5_radial_875_1626" cx="0" cy="0" r="1" gradientUnits="userSpaceOnUse" gradientTransform="translate(7.32616 32.3516) rotate(90) scale(2.02197 2.05126)">
<stop stop-color="#D7FFFA"/>
<stop offset="1" stop-color="#0BA2AB"/>
</radialGradient>
<radialGradient id="paint6_radial_875_1626" cx="0" cy="0" r="1" gradientUnits="userSpaceOnUse" gradientTransform="translate(19 55.0015) rotate(90) scale(2 1)">
<stop stop-color="#D7FFFA"/>
<stop offset="1" stop-color="#0BA2AB"/>
</radialGradient>
<radialGradient id="paint7_radial_875_1626" cx="0" cy="0" r="1" gradientUnits="userSpaceOnUse" gradientTransform="translate(124 55.0015) rotate(90) scale(2 1)">
<stop stop-color="#D7FFFA"/>
<stop offset="1" stop-color="#0BA2AB"/>
</radialGradient>
<radialGradient id="paint8_radial_875_1626" cx="0" cy="0" r="1" gradientUnits="userSpaceOnUse" gradientTransform="translate(19 10.0015) rotate(90) scale(2 1)">
<stop stop-color="#D7FFFA"/>
<stop offset="1" stop-color="#0BA2AB"/>
</radialGradient>
<radialGradient id="paint9_radial_875_1626" cx="0" cy="0" r="1" gradientUnits="userSpaceOnUse" gradientTransform="translate(124 10.0015) rotate(90) scale(2 1)">
<stop stop-color="#D7FFFA"/>
<stop offset="1" stop-color="#0BA2AB"/>
</radialGradient>
<radialGradient id="paint10_radial_875_1626" cx="0" cy="0" r="1" gradientUnits="userSpaceOnUse" gradientTransform="translate(135.676 32.3516) rotate(90) scale(2.02197 2.05126)">
<stop stop-color="#D7FFFA"/>
<stop offset="1" stop-color="#0BA2AB"/>
</radialGradient>
</defs>
</svg>
