<svg width="97" height="47" viewBox="0 0 97 47" fill="none" xmlns="http://www.w3.org/2000/svg">
<path d="M-28.5898 1.45874H80.1269L87.7459 8.02338L93.8997 23.7056L87.7459 38.2936L80.1269 45.9524H-28.5898L-37.3809 36.1054L-41.1904 23.7056L-37.3809 12.0351L-28.5898 1.45874Z" fill="url(#paint0_radial_875_420)"/>
<path d="M95.0433 23.3222C95.0428 23.0095 95.1055 22.7017 95.2257 22.4272C95.346 22.1527 95.5198 21.9203 95.7313 21.7515C95.9116 21.6148 96.0434 21.3979 96.1001 21.1448C96.1567 20.8917 96.1338 20.6212 96.0361 20.3883C91.7216 10.3917 91.2558 10.2835 85.6251 3.72435C82.8661 0.513889 81.1739 -0.0338927 79.6426 0.00156239C78.1114 0.0370175 76.4463 1.64491 75.9392 3.19252C75.2455 5.31983 75.9762 8.96816 77.7909 10.2835C79.1683 11.2834 81.181 11.0724 82.0641 9.75172C83.3005 7.90628 82.2066 5.85166 81.9217 4.96528C81.9074 4.92096 81.906 4.88551 81.9217 4.866C82.2066 4.40509 88.3315 10.6381 90.1832 15.6018C90.3257 15.9723 89.0921 16.4279 88.9013 17.02C88.6164 17.9064 88.9013 18.2609 88.7588 18.97C88.538 20.0727 86.0525 18.4382 85.3402 23.2247V23.4019C86.0525 28.1884 88.538 26.5539 88.7588 27.6566C88.9013 28.3657 88.6164 28.7202 88.9013 29.6066C89.0921 30.1987 90.3257 30.6543 90.1832 31.0248C88.3315 35.9885 82.2066 42.2215 81.9217 41.7606C81.9089 41.7411 81.9103 41.7056 81.9217 41.6613C82.2066 40.7749 83.3005 38.7203 82.0641 36.8749C81.181 35.5542 79.1683 35.3432 77.7909 36.3431C75.9762 37.6584 75.2455 41.3068 75.9392 43.4341C76.4463 44.9817 78.1256 46.5878 79.6426 46.625C81.1596 46.6623 82.8661 46.1127 85.6251 42.9023C90.4681 37.2702 94.2955 29.8016 95.9663 26.2827C96.0783 26.0539 96.1154 25.7803 96.0701 25.5184C96.0248 25.2565 95.9005 25.0263 95.7227 24.8751C95.5148 24.7068 95.3438 24.4767 95.2252 24.2056C95.1066 23.9345 95.0441 23.6309 95.0433 23.3222Z" fill="url(#paint1_radial_875_420)"/>
<defs>
<radialGradient id="paint0_radial_875_420" cx="0" cy="0" r="1" gradientUnits="userSpaceOnUse" gradientTransform="translate(26.3546 23.7056) rotate(90) scale(22.2468 67.5451)">
<stop stop-color="#69C9DE"/>
<stop offset="1" stop-color="#00758E"/>
</radialGradient>
<radialGradient id="paint1_radial_875_420" cx="0" cy="0" r="1" gradientUnits="userSpaceOnUse" gradientTransform="translate(85.9056 23.3134) rotate(90) scale(23.3134 10.2249)">
<stop stop-color="white"/>
<stop offset="0.836194" stop-color="#FBF3D5"/>
<stop offset="1" stop-color="#FFF0CA"/>
</radialGradient>
</defs>
</svg>
