<svg width="91" height="91" viewBox="0 0 91 91" fill="none" xmlns="http://www.w3.org/2000/svg">
<path fill-rule="evenodd" clip-rule="evenodd" d="M3.003 2.63928C6.52203 -0.879759 12.2275 -0.879759 15.7466 2.63928L87.835 74.7277C91.354 78.2467 91.354 83.9522 87.835 87.4712C84.3159 90.9903 78.6104 90.9903 75.0914 87.4712L3.003 15.3828C-0.516034 11.8638 -0.516034 6.15831 3.003 2.63928Z" fill="black"/>
<path fill-rule="evenodd" clip-rule="evenodd" d="M87.4712 3.003C83.9522 -0.516031 78.2467 -0.516031 74.7277 3.003L2.63927 75.0914C-0.879757 78.6104 -0.87976 84.3159 2.63927 87.835C6.15831 91.354 11.8638 91.354 15.3828 87.835L87.4712 15.7466C90.9903 12.2275 90.9903 6.52204 87.4712 3.003Z" fill="black"/>
</svg>
